<svg xmlns="http://www.w3.org/2000/svg" viewBox="0 0 400 200" fill="none">
  <g stroke="#4D6959" stroke-width="14" stroke-linecap="round" stroke-linejoin="round">
    <path d="M379,80 C379,93 368,104 355,104 C342,104 331,93 331,80 C331,67 342,56 355,56 C368,56 379,67 379,80 Z"/>
    <path d="M355,104 C340,108 310,112 288,115"/>
    <path d="M270,40 C271,70 278,95 288,115 C300,140 280,178 248,177 C220,176 205,162 208,145"/>
    <path d="M259,21 C262,13 267,11 271,17 C275,11 280,13 283,21"/>
    <path d="M208,145 C195,143 175,141 160,148"/>
    <path d="M160,148 C156,142 153,135 152,124"/>
    <path d="M153,120 C153,142 132,160 105,160 C76,160 55,142 55,118 C55,94 76,78 105,78 C132,78 153,96 153,120 Z"/>
  </g>
  <g fill="#4D6959">
    <circle cx="345" cy="35" r="8"/>
    <circle cx="365" cy="35" r="8"/>
    <circle cx="90" cy="45" r="9"/>
    <circle cx="120" cy="45" r="9"/>
  </g>
</svg>
